<?xml version="1.0"?><svg width="213.33333333333331" height="213.33333333333331" xmlns="http://www.w3.org/2000/svg">
 <title>red flag</title>

 <metadata id="metadata4">image/svg+xmlWaving White FlagNicu BuculeiNicu Buculeiflag</metadata>
 <g>
  <title>Layer 1</title>
  <path fill="#ff0000" fill-rule="evenodd" stroke-width="1.0000000pt" id="path2171" d="m172.78125,7.1875c-1.890366,1.13422 -37.426804,12.48464 -50.28125,14.375c0.003288,0.009411 0.027901,0.084169 0.03125,0.09375c-17.962502,2.37767 -35.5345,-20.70604 -51.46875,-11.8125c0,0 0.062347,0.12459 0.0625,0.125c-20.15733,3.39776 -39.60504,8.24242 -59.40625,14.59375c0,0 24.953388,68.825851 26.84375,74.875c11.106548,-7.404373 51.874603,-16.52404 58.90625,-17.96875c0.009041,0.026062 0.053719,0.162117 0.0625,0.1875c20.033432,3.338913 24.556267,16.045181 49.71875,10.09375c0.026962,0.033707 0.165497,0.482399 0.1875,0.5c6.049149,-1.134216 49.90625,-14.75 49.90625,-14.75c0,0 -22.672134,-71.44672 -24.5625,-70.3125z"/>
  <path fill="#404040" fill-rule="evenodd" stroke-width="1.0000000pt" id="path2167" d="m7.93951,18.903589l4.15879,4.91494l58.601132,161.058607l-1.890366,4.914917l-3.780708,-2.268417l-58.979208,-163.327036l-0.75614,-3.02458l2.6465,-2.268431z"/>
  <path fill="#ffffff" fill-opacity="0.12549" fill-rule="evenodd" stroke-width="1.0000000pt" id="path2177" d="m143.667297,17.013229c0,0 27.599243,-10.964079 29.489609,-9.829869c1.89035,1.13422 20.793945,56.332711 21.928162,62.003789c1.134216,5.671074 -31.758041,-47.637058 -51.41777,-52.17392z"/>
  <path fill="#ffffff" fill-opacity="0.12549" fill-rule="evenodd" stroke-width="1.0000000pt" id="path2178" d="m27.599239,20.037809c0,0 41.965984,-13.61059 44.612484,-10.207939c2.6465,3.402639 24.952736,64.272211 21.928154,60.491488c-3.024567,-3.780716 -56.332699,-48.015118 -66.540638,-50.283548z"/>
  <path fill="#000000" fill-rule="evenodd" stroke-width="2.5" stroke-miterlimit="4" id="path908" d="m174.28125,5.1875c-19.451019,6.69711 -38.899567,14.782181 -59.687263,15.93383c-13.440613,-1.97402 -22.814606,-17.91536 -37.441673,-13.9622c-21.968315,3.77781 -43.411713,9.968359 -64.902313,15.77837c-4.69583,-11.9887 -11.25198,-3.709539 -5.45934,7.87878c19.31356,53.080547 39.165318,106.192173 58.551679,159.24622c13.891022,9.04808 2.286888,-16.768723 0.075081,-23.172714c-8.185268,-22.481506 -16.44482,-44.936485 -24.448669,-67.483536c20.053249,-7.467194 40.692413,-15.37178 62.239838,-16.292282c12.175583,3.178741 21.894669,16.917099 36.129486,11.494324c20.092056,-2.751099 38.997543,-10.449051 58.397034,-15.905273c0.71196,-10.735901 -7.340744,-22.890598 -9.904678,-34.181717c-4.507355,-13.114382 -9.014435,-26.228861 -13.549179,-39.333801zm-1.53125,3.21875c7.791672,22.64583 15.583328,45.291672 23.375,67.9375c-22.042862,6.740723 -43.983734,15.69825 -67.274628,16.570488c-12.8479,-2.909401 -21.773743,-15.862274 -37.274292,-11.278137c-17.648651,3.20327 -34.754581,8.846672 -51.41983,15.395149c-8.896759,-23.952682 -17.83618,-47.889519 -26.8125,-71.8125c23.006599,-6.03528 45.844318,-13.21836 69.527809,-16.1456c13.995018,1.83075 23.655594,18.23784 38.875298,14.138261c17.544617,-2.796951 34.347809,-8.81762 51.003143,-14.805161zm-151.91433,44.219662c14.862961,39.28648 29.120979,78.838612 43.362022,118.323475c3.287857,3.834457 8.543274,23.998108 1.12204,13.966797c-19.374352,-54.467499 -39.353733,-109.51194 -59.007513,-163.914484c3.99095,-4.365108 9.48772,21.13727 14.52345,31.624212z"/>
  <path fill="#000000" fill-opacity="0.094118" fill-rule="evenodd" stroke-width="1.0000000pt" id="path2176" d="m97.164459,15.12287c0,0 19.659744,72.211717 23.440453,75.236299c5.671082,6.049149 32.136101,0 37.051048,-0.756142c-26.465042,-15.879021 -49.905487,-54.064278 -55.576561,-72.211727c-2.6465,-2.26843 -1.512291,0.37808 -4.91494,-2.26843z"/>
 </g>
</svg>